# xmcd
#
# Track frame offsets:
#	150
#	19191
#	48929
#	81342
#	108935
#	162330
#	203123
#	235926
#
# Disc length: 3469 seconds
#
# Revision: 1
# Processed by: cddbd v1.5.2PL0 Copyright (c) Steve Scherf et al.
# Submitted via: audiograbber 1.83.01
#
DISCID=5f0d8b08
DTITLE=Luther Allison Band - Live 1998
DYEAR=1998
DGENRE=Blues
TTITLE0=I Think I Need Some Help
TTITLE1=Next Generation
TTITLE2=All Your Love
TTITLE3=Life Is A Bitch
TTITLE4=Bad News Is Coming
TTITLE5=Parking Lot
TTITLE6=L.A.´s Knocking On Your Door
TTITLE7=Freedom
EXTD=
EXTT0=
EXTT1=
EXTT2=
EXTT3=
EXTT4=
EXTT5=
EXTT6=
EXTT7=
PLAYORDER=
